<svg xmlns="http://www.w3.org/2000/svg" width="1536" height="1020" viewBox="0 0 1536 1020" role="img"><title>Hören Teil 2 · Mock 8</title><rect width="100%" height="100%" fill="#f8fafc"/><text x="60" y="52" font-family="Arial, sans-serif" font-size="28" font-weight="700" fill="#334155">Hören Teil 2 · Mock 8</text><g><rect x="60" y="90" width="448" height="252" rx="24" fill="#ffffff" stroke="#cbd5e1" stroke-width="4"/><circle cx="104" cy="134" r="25" fill="#0f766e"/><text x="104" y="143" text-anchor="middle" font-family="Arial, sans-serif" font-size="26" font-weight="700" fill="white">A</text><rect x="236" y="161" width="96" height="84" rx="14" fill="none" stroke="#0f766e" stroke-width="8"/><path d="M264 161v-17h40v17" fill="none" stroke="#0f766e" stroke-width="7"/><text x="284" y="297" text-anchor="middle" font-family="Arial, sans-serif" font-size="27" font-weight="650" fill="#172033">Tauschraum</text></g><g><rect x="544" y="90" width="448" height="252" rx="24" fill="#ffffff" stroke="#cbd5e1" stroke-width="4"/><circle cx="588" cy="134" r="25" fill="#1d4ed8"/><text x="588" y="143" text-anchor="middle" font-family="Arial, sans-serif" font-size="26" font-weight="700" fill="white">B</text><path d="M713 178l55-34 55 34zM723 183v62M753 183v62M783 183v62M813 183v62M711 248h114" fill="none" stroke="#1d4ed8" stroke-width="8" stroke-linecap="round" stroke-linejoin="round"/><text x="768" y="297" text-anchor="middle" font-family="Arial, sans-serif" font-size="27" font-weight="650" fill="#172033">Bürgerzentrum</text></g><g><rect x="1028" y="90" width="448" height="252" rx="24" fill="#ffffff" stroke="#cbd5e1" stroke-width="4"/><circle cx="1072" cy="134" r="25" fill="#b45309"/><text x="1072" y="143" text-anchor="middle" font-family="Arial, sans-serif" font-size="26" font-weight="700" fill="white">C</text><path d="M1252 253v-44M1220 253h64" stroke="#b45309" stroke-width="9" stroke-linecap="round"/><circle cx="1252" cy="181" r="39" fill="none" stroke="#b45309" stroke-width="8"/><circle cx="1222" cy="198" r="25" fill="#fff" stroke="#b45309" stroke-width="7"/><circle cx="1283" cy="199" r="25" fill="#fff" stroke="#b45309" stroke-width="7"/><text x="1252" y="297" text-anchor="middle" font-family="Arial, sans-serif" font-size="27" font-weight="650" fill="#172033">Sportpark</text></g><g><rect x="60" y="390" width="448" height="252" rx="24" fill="#ffffff" stroke="#cbd5e1" stroke-width="4"/><circle cx="104" cy="434" r="25" fill="#7c3aed"/><text x="104" y="443" text-anchor="middle" font-family="Arial, sans-serif" font-size="26" font-weight="700" fill="white">D</text><rect x="236" y="461" width="96" height="84" rx="14" fill="none" stroke="#7c3aed" stroke-width="8"/><path d="M264 461v-17h40v17" fill="none" stroke="#7c3aed" stroke-width="7"/><text x="284" y="597" text-anchor="middle" font-family="Arial, sans-serif" font-size="27" font-weight="650" fill="#172033">Copyshop</text></g><g><rect x="544" y="390" width="448" height="252" rx="24" fill="#ffffff" stroke="#cbd5e1" stroke-width="4"/><circle cx="588" cy="434" r="25" fill="#be123c"/><text x="588" y="443" text-anchor="middle" font-family="Arial, sans-serif" font-size="26" font-weight="700" fill="white">E</text><path d="M719 531q-8-48 49-66 57 18 49 66z" fill="none" stroke="#be123c" stroke-width="8"/><path d="M745 485l-9 28M770 479l-7 30M795 488l-7 28" stroke="#be123c" stroke-width="6" stroke-linecap="round"/><text x="768" y="597" text-anchor="middle" font-family="Arial, sans-serif" font-size="27" font-weight="650" fill="#172033">Bäckerei</text></g><g><rect x="1028" y="390" width="448" height="252" rx="24" fill="#ffffff" stroke="#cbd5e1" stroke-width="4"/><circle cx="1072" cy="434" r="25" fill="#0369a1"/><text x="1072" y="443" text-anchor="middle" font-family="Arial, sans-serif" font-size="26" font-weight="700" fill="white">F</text><rect x="1200" y="458" width="104" height="76" rx="14" fill="none" stroke="#0369a1" stroke-width="8"/><path d="M1218 476h68v27h-68zM1215 550v-16M1289 550v-16" fill="none" stroke="#0369a1" stroke-width="7"/><circle cx="1220" cy="525" r="7" fill="#0369a1"/><circle cx="1284" cy="525" r="7" fill="#0369a1"/><text x="1252" y="597" text-anchor="middle" font-family="Arial, sans-serif" font-size="27" font-weight="650" fill="#172033">Tramhalt</text></g><g><rect x="60" y="690" width="448" height="252" rx="24" fill="#ffffff" stroke="#cbd5e1" stroke-width="4"/><circle cx="104" cy="734" r="25" fill="#4d7c0f"/><text x="104" y="743" text-anchor="middle" font-family="Arial, sans-serif" font-size="26" font-weight="700" fill="white">G</text><path d="M236 779h70v57h-70zM306 790h14q22 0 22 20t-22 20h-14" fill="none" stroke="#4d7c0f" stroke-width="8" stroke-linejoin="round"/><path d="M258 761q12-14 0-28M284 761q12-14 0-28" fill="none" stroke="#4d7c0f" stroke-width="6" stroke-linecap="round"/><text x="284" y="897" text-anchor="middle" font-family="Arial, sans-serif" font-size="27" font-weight="650" fill="#172033">Café</text></g><g><rect x="544" y="690" width="448" height="252" rx="24" fill="#ffffff" stroke="#cbd5e1" stroke-width="4"/><circle cx="588" cy="734" r="25" fill="#a21caf"/><text x="588" y="743" text-anchor="middle" font-family="Arial, sans-serif" font-size="26" font-weight="700" fill="white">H</text><circle cx="768" cy="803" r="52" fill="none" stroke="#a21caf" stroke-width="8"/><path d="M740 803h56M768 775v56" stroke="#a21caf" stroke-width="12" stroke-linecap="round"/><text x="768" y="897" text-anchor="middle" font-family="Arial, sans-serif" font-size="27" font-weight="650" fill="#172033">Apotheke</text></g><g><rect x="1028" y="690" width="448" height="252" rx="24" fill="#ffffff" stroke="#cbd5e1" stroke-width="4"/><circle cx="1072" cy="734" r="25" fill="#334155"/><text x="1072" y="743" text-anchor="middle" font-family="Arial, sans-serif" font-size="26" font-weight="700" fill="white">I</text><path d="M1200 763h104v80h-104zM1200 763l52 45 52-45" fill="none" stroke="#334155" stroke-width="8" stroke-linejoin="round"/><text x="1252" y="897" text-anchor="middle" font-family="Arial, sans-serif" font-size="27" font-weight="650" fill="#172033">Post</text></g></svg>