<svg xmlns="http://www.w3.org/2000/svg" width="1536" height="420" viewBox="0 0 1536 420" role="img"><title>Aufgabe 13</title><rect width="100%" height="100%" fill="#f8fafc"/><text x="60" y="52" font-family="Arial, sans-serif" font-size="28" font-weight="700" fill="#334155">Aufgabe 13</text><g><rect x="60" y="90" width="448" height="252" rx="24" fill="#ffffff" stroke="#cbd5e1" stroke-width="4"/><circle cx="104" cy="134" r="25" fill="#0f766e"/><text x="104" y="143" text-anchor="middle" font-family="Arial, sans-serif" font-size="26" font-weight="700" fill="white">A</text><rect x="236" y="161" width="96" height="84" rx="14" fill="none" stroke="#0f766e" stroke-width="8"/><path d="M264 161v-17h40v17" fill="none" stroke="#0f766e" stroke-width="7"/><text x="284" y="297" text-anchor="middle" font-family="Arial, sans-serif" font-size="27" font-weight="650" fill="#172033">Touristinfo</text></g><g><rect x="544" y="90" width="448" height="252" rx="24" fill="#ffffff" stroke="#cbd5e1" stroke-width="4"/><circle cx="588" cy="134" r="25" fill="#1d4ed8"/><text x="588" y="143" text-anchor="middle" font-family="Arial, sans-serif" font-size="26" font-weight="700" fill="white">B</text><path d="M720 179h70v57h-70zM790 190h14q22 0 22 20t-22 20h-14" fill="none" stroke="#1d4ed8" stroke-width="8" stroke-linejoin="round"/><path d="M742 161q12-14 0-28M768 161q12-14 0-28" fill="none" stroke="#1d4ed8" stroke-width="6" stroke-linecap="round"/><text x="768" y="297" text-anchor="middle" font-family="Arial, sans-serif" font-size="27" font-weight="650" fill="#172033">Café</text></g><g><rect x="1028" y="90" width="448" height="252" rx="24" fill="#ffffff" stroke="#cbd5e1" stroke-width="4"/><circle cx="1072" cy="134" r="25" fill="#b45309"/><text x="1072" y="143" text-anchor="middle" font-family="Arial, sans-serif" font-size="26" font-weight="700" fill="white">C</text><path d="M1197 178l55-34 55 34zM1207 183v62M1237 183v62M1267 183v62M1297 183v62M1195 248h114" fill="none" stroke="#b45309" stroke-width="8" stroke-linecap="round" stroke-linejoin="round"/><text x="1252" y="297" text-anchor="middle" font-family="Arial, sans-serif" font-size="27" font-weight="650" fill="#172033">Buchhandlung</text></g></svg>